<svg xmlns="http://www.w3.org/2000/svg" width="305.166" height="103.725" viewBox="0 0 305.166 103.725">
  <g id="afternoom" transform="translate(-204.502 -586.286)">
    <g id="arco" transform="translate(233.627 606.643)">
      <path id="Trazado_27" data-name="Trazado 27" d="M121.809,0c54.436,0,100.946,33.935,119.775,82.442-121.56-.716-121.454,0-237.709,0C22.153,35.35,67.372,0,121.809,0Z" fill="none"/>
      <path id="Trazado_28" data-name="Trazado 28" d="M121.809,0h.816q1.313.008,2.62.043h.008l.056,0h.282l.219.007-.123,4C124.4,4.02,123.1,4,121.809,4V0Zm8,.245q2,.123,3.987.308l-.369,3.983c-1.279-.119-2.579-.219-3.863-.3L129.8.245Zm7.965.739q1.663.207,3.313.456h.005l.073.011h0l.032,0,.021,0,.043.007.028,0,.024,0,.046.007.017,0,.041.006.012,0,.054.008h.009l.242.038-.618,3.952c-1.269-.2-2.56-.379-3.837-.538L137.77.985Zm7.9,1.235.012,0,.036.007.029.005.03.006.025,0,.042.008.023,0,.037.007.026,0,.035.007.019,0,.048.009.017,0,.043.008.014,0,.047.009.016,0,.051.01.011,0,.048.009h.008l.054.011.01,0,.056.011h0l.057.011h0l.059.011h0l.12.024h0q1.473.29,2.935.613l-.865,3.905c-1.254-.278-2.532-.539-3.795-.778l.741-3.931Zm7.81,1.729q.576.147,1.149.3h0l.056.015.008,0,.053.014h0l.051.013.016,0,.046.013.02.005.032.009.029.008.033.009.026.007.026.007.044.012.016,0c.751.2,1.5.411,2.247.626l-1.108,3.843c-1.235-.356-2.492-.7-3.738-1.015Zm7.685,2.217q.537.173,1.07.351h0l.055.018.008,0,.053.018.008,0,.046.016.011,0,.048.016.017.006.045.015.017.006.034.012.021.007.042.014.023.008.028.009.038.013.022.008.027.009.037.013.028.01.022.007.046.016.016.006.1.033.012,0,.055.019.013,0,.031.011.011,0,.055.019.016.005.05.017.015.005.1.033.017.006.046.016.019.007.029.01.022.008.042.015.023.008.034.012.031.011.023.008.043.015.017.006.036.013.016.005.047.016.014,0,.05.018.006,0,.054.019h0l.057.02h0q.471.165.941.333L163.6,11.22c-1.21-.433-2.444-.854-3.667-1.249Zm7.53,2.7.556.221h0l.068.027h0l.027.011.025.01.034.014.03.012.019.008.045.018.014.006.048.019h0l.051.021.008,0,.053.022,0,0q.927.374,1.846.763h0l.17.072,0,0,.17.072h0l.171.073h0l.343.148-1.583,3.673c-1.181-.509-2.386-1.006-3.582-1.477L168.7,8.863Zm7.346,3.167q.425.2.847.4h0l.107.051.009,0,.049.023.011.005.042.02.012.006.041.02.019.009.04.019.022.011.024.011.038.018.021.011.027.013.009,0,.056.027.009,0,.059.029h0l.1.049h0c.687.334,1.367.671,2.047,1.017l-1.811,3.566c-1.147-.582-2.318-1.154-3.482-1.7Zm7.131,3.622q.467.255.93.514h0l.051.029.006,0,.052.029h0l.05.028.006,0,.049.028.007,0,.049.028.006,0,.046.026.006,0,.048.027.011.006.046.026.008,0,.044.025.007,0,.047.026.01.006.047.026.008,0,.046.026,0,0,.048.027.01.006.048.027,0,0,.05.028h0l.053.03,0,0,.053.03h0q.814.464,1.621.94l-2.031,3.446c-1.108-.653-2.241-1.3-3.368-1.915Zm6.891,4.062.738.47h0l.155.1,0,0,.05.032,0,0,.1.065.005,0,.049.032,0,0,.1.063.008.005.046.029.009.006.046.03h0l.047.031.009.006.045.03.008.005.047.03,0,0,.044.028.008.005.045.029.011.007.044.029.007,0,.04.027.011.007.043.028.012.008.044.029.006,0,.043.028.008.005.045.03.009.006.046.03,0,0,.047.031,0,0,.048.032.006,0,.048.032,0,0,.1.065,0,0,.05.033h0l.1.069h0q.494.328.986.661l-2.243,3.312c-1.065-.721-2.156-1.435-3.242-2.122Zm6.623,4.484.4.293,0,0,.048.035,0,0,.047.034h0l.043.032.011.008.04.029.016.012.03.022.023.017.025.018.021.015.032.024.023.017.016.012.044.032.009.006q1.192.878,2.364,1.782l-2.444,3.166c-1.018-.786-2.063-1.567-3.1-2.32Zm6.332,4.888q1.194.982,2.363,1.992l.008.007.045.039.009.008.023.02.018.016.032.027.021.018.017.015.035.03.014.013.037.032.01.008.036.031.006.006.043.037.005,0,.327.286-2.636,3.009c-.967-.848-1.961-1.692-2.954-2.509Zm6.017,5.271q.35.326.7.655l.015.014.028.027.025.023.014.013.036.035.009.009q.858.814,1.7,1.644l.006.006.037.037.01.009.029.029.016.016.029.028.023.024,0,0,.2.2-2.817,2.84c-.913-.906-1.853-1.81-2.794-2.687Zm5.679,5.633q.658.695,1.306,1.4h0l.072.078.009.01.036.039.013.013.02.023.027.029.018.02.019.021.024.026.021.022.016.018.029.032.016.017.025.027.017.019.024.026.014.015.031.033.014.016.028.03.016.017.023.025.014.016.03.032.016.018.024.026.021.024.019.02.023.026.021.023.019.021.015.016.033.036.01.012.041.046,0,0c.2.221.4.444.6.666L214.436,45.6c-.856-.961-1.738-1.921-2.623-2.854Zm5.321,5.972.007.009.027.032.017.02.017.02.025.031.017.02.018.021.026.031.017.02.017.021.025.031.017.02.017.021.026.031.018.022.015.018.029.034.013.017.032.038.012.015.019.024.013.015.031.038.012.014.037.045.006.007.021.025.01.011.035.043.009.011c.013.017.028.034.042.051l0,0,.022.028,0,0,.041.051.006.007.114.139,0,0q.861,1.051,1.7,2.119l-3.144,2.472c-.795-1.011-1.617-2.024-2.443-3.011Zm4.944,6.289c.074.1.148.2.221.3h0l.071.1a.03.03,0,0,0,.005.007l.032.044.007.009.029.04.006.009.028.037a.137.137,0,0,1,.01.015l.028.038.013.017.019.027.02.027.017.023.016.022.023.032.018.024.01.015.032.044.007.01.063.087,0,0,.042.059h0q.657.908,1.3,1.826l0,0,.036.052.007.009c.01.015.018.026.029.041s.008.012.011.017l.017.024.015.021.02.03.019.027.012.018.027.039.01.014.028.042,0,0,.031.045,0,.006.033.049h0l-3.291,2.274c-.731-1.058-1.489-2.12-2.252-3.155Zm4.547,6.58q1.086,1.678,2.12,3.392l-3.424,2.068c-.665-1.1-1.356-2.207-2.055-3.287Zm4.135,6.847q.693,1.233,1.363,2.485l.007.014c.007.014.016.031.024.045a.177.177,0,0,0,.01.019l.013.025.02.037.011.021.015.029.011.02.021.04.008.016.024.044.006.011c.008.015.016.03.023.045l0,0,.027.051,0,.005q.16.3.319.607l-3.545,1.854c-.6-1.14-1.218-2.287-1.849-3.408Zm3.707,7.088,0,.007.019.039.011.023.012.025c.006.011.013.026.018.037a.187.187,0,0,1,.01.021c.006.011.012.024.017.035l.013.026.013.028.008.015.024.051a.051.051,0,0,1,0,.011c.017.034.03.062.046.1l0,.006c.01.023.019.04.03.063a0,0,0,0,0,0,0q.747,1.56,1.454,3.141l-3.651,1.633c-.525-1.175-1.076-2.357-1.637-3.515Zm2.785,6.149q.738,1.75,1.429,3.529h0l-4.311-.025q-.168-.417-.338-.83l3.212-1.32Zm-7.993-.525,4,.022-.022,4-.791,0-.74,0-1.795-.01-.67,0Zm-8.005-.043,4,.021-.022,4-2.584-.014-1.415-.007Zm-8-.041,4,.02-.021,4-2.335-.012-1.668-.008Zm-8-.038,4,.019-.019,4-4-.019Zm-8-.034,4,.017-.018,4-2.057-.009-1.945-.008Zm-8-.031,4,.015-.015,4-1.87-.007-2.126-.008Zm-8.007-.026,4,.013-.013,4-4-.013Zm-8-.021,4,.01-.01,4-.847,0-3.152-.008Zm-8-.016,4,.007-.008,4-1.006,0-2.994-.005Zm-8-.01,4,0,0,4h-.958l-3.042,0Zm-8,0h4l0,4h-4Zm-4,0,0,4h-.778l-3.221,0,0-4Zm-8,.007.005,4-2.247,0-1.752,0-.007-4Zm-8,.013.008,4-1.559,0-1.651,0-.79,0-.01-4Zm-8,.019.011,4-4,.012-.012-4Zm-8,.024.013,4-1.6.005-2.4.008-.014-4Zm-8,.028.015,4-4,.015-.015-4Zm-8,.03.015,4-.651,0-3.349.013-.015-4,2.745-.01Zm-8,.03.015,4-.484,0-3.515.013-.015-4Zm-8,.029.014,4-4,.014-.013-4Zm-8,.027.013,4-.581,0-3.414.011-.012-4Zm-8,.024.011,4-4,.011-.011-4Zm-8,.021.01,4-2.114.005-1.877,0h0l-.009-4Zm-8,.018.008,4h-.4l-1.88,0-1.712,0-.007-4Zm-7.992.015.007,4-4,.006-.006-4Zm-8,.012.005,4h-.313l-3.682,0,0-4Zm-7.992.009,0,4H27.3l-2.8,0h-.34l0-4Zm-8,.006,0,4h-.137l-3.864,0,0-4Zm-8,0v4H3.875q.134-.345.27-.689h0l0,0,.01-.024.009-.022.016-.04.007-.018.011-.027L4.2,81.6l.019-.048.006-.014.022-.054,0-.008.012-.03,0-.01.023-.057,0-.007.013-.032v0l.025-.063,0-.006c.306-.767.618-1.527.939-2.288l2.869,1.209V78.442Zm-3.54-6.732,3.585,1.775c-.571,1.154-1.133,2.332-1.668,3.5L6.885,75.32q.286-.625.579-1.247h0l.08-.169h0l.026-.056h0l.052-.111v0l.025-.053,0,0,.051-.106,0-.006.024-.051,0-.008.024-.051,0-.006.022-.047,0-.008.023-.048.006-.012.023-.047,0-.01.021-.044,0-.007.022-.047.007-.014.022-.045.007-.015.019-.039.009-.018.017-.036.009-.018L8,72.952l.009-.019.016-.033.013-.026.013-.028.011-.022.018-.037.012-.025.012-.024.018-.037.009-.019.023-.047.006-.013.015-.031v0l.03-.061,0-.008.028-.058,0,0c.123-.252.244-.5.368-.749Zm3.766-7.057,3.47,1.989c-.64,1.117-1.272,2.259-1.878,3.394l-3.529-1.883c.327-.612.662-1.229,1-1.836l.006-.01.023-.042.012-.021.013-.023.021-.038.009-.017.02-.037.005-.009.027-.048,0-.007Q11.968,65.355,12.371,64.652Zm4.187-6.816,3.343,2.2c-.707,1.076-1.406,2.177-2.08,3.274l-3.408-2.094Q15.46,59.508,16.558,57.836Zm4.591-6.55,3.2,2.394c-.77,1.031-1.535,2.088-2.274,3.142l-3.275-2.3.046-.065.007-.01.029-.042.017-.024.015-.021.026-.036.008-.012.031-.045,0,0q.881-1.25,1.79-2.479l0,0,.036-.049h0l.073-.1,0,0,.036-.048,0,0,.11-.148h0Zm4.979-6.26,3.054,2.584c-.831.982-1.659,1.991-2.46,3l-3.131-2.49q.895-1.125,1.813-2.23h0l.038-.046,0,0,.038-.045h0l.035-.043.007-.008.033-.039.01-.012.031-.037.011-.013.024-.028.015-.018.025-.03.017-.021.015-.018.03-.036.009-.01Zm5.35-5.946,2.891,2.765c-.889.93-1.776,1.886-2.637,2.843l-2.974-2.675q.585-.65,1.178-1.292l0,0,.039-.042.006-.006.037-.04.007-.007.031-.033.01-.011.032-.034.015-.016.03-.032.016-.018.018-.02.028-.031.016-.017.02-.022.006-.006.042-.045.008-.008.041-.044.007-.007C30.722,39.875,31.1,39.478,31.478,39.08Zm5.7-5.609L39.9,36.407c-.944.873-1.888,1.773-2.805,2.676l-2.805-2.852q.757-.745,1.527-1.478h0l.045-.043h0l.09-.085h0l.044-.041,0,0,.088-.084h0l.044-.041,0,0,.043-.041,0,0,.086-.081.005,0,.041-.039,0,0L36.4,34.2l0,0,.041-.039.006-.006.042-.039,0,0,.044-.042h0l.044-.041,0,0,.043-.041,0,0,.087-.082,0,0,.043-.04,0,0,.09-.084h0l.045-.042,0,0Zm6.036-5.249,2.53,3.1c-1,.813-1.993,1.653-2.964,2.5L40.158,30.8l.069-.06,0,0,.054-.047h0l.082-.071,0,0,.051-.045,0,0,.08-.069.006-.005.049-.042,0,0,.136-.117,0,0,.137-.118h0Q42.018,29.2,43.217,28.222Zm6.349-4.865,2.333,3.25c-1.044.749-2.091,1.526-3.112,2.309L46.354,25.74q.545-.418,1.095-.83l0,0,.047-.035h0l.044-.033.011-.008.041-.03.012-.009.036-.027.016-.012.031-.023.017-.013.035-.026.02-.015.024-.018.029-.022.02-.015.034-.025.019-.014.026-.019.01-.008.046-.034.01-.007.051-.038,0,0,.088-.065h0l.207-.153h0l.594-.434,0,0,.054-.039.007-.005.048-.035.01-.007.027-.02.01-.007.044-.032.016-.012.035-.025.022-.016.021-.015.036-.026.015-.011.037-.027.009-.007.039-.028.011-.008.043-.031.007-.005ZM56.208,18.9l2.124,3.39c-1.088.682-2.182,1.391-3.25,2.108l-2.229-3.321q.363-.243.727-.484h0l.05-.033,0,0,.05-.033h0l.049-.032,0,0,.047-.031.008-.005.047-.031.005,0,.044-.029.006,0,.045-.03.01-.007.044-.029L54,20.311l.04-.026.007,0,.043-.028.013-.009.043-.028.01-.007.042-.028.008-.005.04-.026.012-.008.041-.027.014-.009.042-.027.01-.006.037-.024.013-.008.042-.027L54.475,20l.042-.027.011-.007.038-.025.009-.006.045-.029.01-.007.045-.029.008-.005.045-.029,0,0,.048-.031.006,0,.048-.031.005,0,.1-.065h0Q55.572,19.3,56.208,18.9Zm6.909-4.03,1.9,3.518c-1.129.611-2.265,1.25-3.376,1.9L59.63,16.829l.006,0,.045-.026.009-.005.044-.026,0,0,.048-.028.009-.005.046-.027.01-.006.1-.057.005,0,.049-.029.006,0,.159-.092h0q1.458-.841,2.94-1.643Zm7.152-3.58,1.675,3.632c-1.166.537-2.34,1.1-3.489,1.677l-1.791-3.577,0,0,.052-.026h0l.05-.025.006,0,.048-.024.012-.006.045-.022L66.9,12.9l.035-.018.016-.008.04-.02.019-.009.039-.019.023-.012.022-.011.041-.02.019-.009.027-.014.016-.008.046-.023.014-.007.054-.026.006,0Q68.781,11.975,70.269,11.289Zm7.368-3.112,1.436,3.733c-1.2.461-2.405.948-3.589,1.448L73.929,9.673l.5-.209h0l.033-.014.01,0,.05-.021.022-.009.03-.013.033-.014.022-.009.042-.018.016-.007.039-.016.011,0,.048-.02.012-.005.05-.021.007,0,.11-.045h0q.807-.332,1.621-.654h0l.112-.044.005,0,.053-.021.008,0,.053-.021.006,0,.046-.018.012,0,.046-.018.018-.007.039-.015.023-.009.029-.011.025-.01.035-.013.029-.011.013-.005.054-.021.01,0,.432-.167Zm7.555-2.627,1.19,3.819c-1.225.382-2.461.789-3.674,1.211L81.394,6.8l.45-.156h0l.034-.012h0l.059-.02.02-.007L82,6.593l.035-.012.021-.007.044-.015.016-.005.041-.014.011,0,.05-.017.011,0,.053-.018h0l.057-.019h0q1.182-.4,2.375-.778h0l.113-.036.01,0,.05-.016.014,0,.039-.012.02-.006L85,5.609l.023-.007.031-.01.038-.012.015,0ZM92.9,3.42l.938,3.889c-1.248.3-2.508.627-3.746.969L89.03,4.421c.371-.1.74-.2,1.112-.3l.007,0,.063-.017.008,0,.032-.008.016,0,.049-.013.021-.006.026-.007.042-.011.023-.006.035-.009.025-.007.039-.01.015,0L90.591,4l.014,0,.052-.014h0l.054-.014.011,0,.054-.014h.006l.115-.03H90.9l.058-.015h0l.484-.124h0l.3-.076h0l.059-.015h0l.114-.028.011,0,.053-.013.009,0,.047-.012.01,0,.049-.012.017,0,.046-.011.021-.005.031-.008.028-.007.035-.009.029-.007.016,0,.056-.014.008,0L92.9,3.42Zm7.833-1.62.681,3.942c-1.265.219-2.545.462-3.8.722l-.81-3.917q1.908-.395,3.843-.731h0l.087-.015ZM108.657.7l.423,3.978c-1.277.136-2.569.295-3.84.472l-.553-3.962.527-.072h.009l.1-.014.025,0,.024,0,.046-.006.019,0,.051-.007h.005l.053-.007h.008l.058-.008h0q1.08-.142,2.166-.266h.007l.055-.006h.013l.042,0,.02,0,.041,0,.024,0,.029,0,.047-.005h.013L108.657.7Zm7.977-.588.165,4c-1.284.053-2.584.128-3.863.222L112.642.337l.084-.006h.008l.057,0,.023,0,.026,0,.045,0h.017l.043,0h.011l.056,0h.006Q114.82.182,116.634.107ZM121.809,0V4c-.379,0-.762,0-1.139.005l-.038-4c.3,0,.6,0,.9-.005h.28Z" fill="rgba(143,158,183,0.5)"/>
    </g>
    <path id="horizonte" d="M1496.15,636h300.166" transform="translate(-1289.148 51.511)" fill="none" stroke="#301549" stroke-linecap="round" stroke-width="5"/>
    <path id="Icon_open-sun" data-name="Icon open-sun" d="M24.81,0a3.071,3.071,0,0,0-3.1,3.1,3.1,3.1,0,0,0,6.2,0A3.071,3.071,0,0,0,24.81,0ZM9.3,6.2a3.1,3.1,0,1,0,3.1,3.1A3.071,3.071,0,0,0,9.3,6.2Zm31.012,0a3.1,3.1,0,1,0,3.1,3.1A3.071,3.071,0,0,0,40.316,6.2ZM24.81,12.4a12.405,12.405,0,1,0,12.405,12.4A12.441,12.441,0,0,0,24.81,12.4ZM3.1,21.709a3.1,3.1,0,0,0,0,6.2,3.1,3.1,0,0,0,0-6.2Zm43.417,0a3.1,3.1,0,1,0,3.1,3.1A3.071,3.071,0,0,0,46.519,21.709ZM9.3,37.215a3.1,3.1,0,1,0,3.1,3.1A3.071,3.071,0,0,0,9.3,37.215Zm31.012,0a3.1,3.1,0,1,0,3.1,3.1A3.071,3.071,0,0,0,40.316,37.215Zm-15.506,6.2a3.1,3.1,0,1,0,3.1,3.1A3.071,3.071,0,0,0,24.81,43.417Z" transform="translate(331.502 586.286)" fill="#301549"/>
  </g>
</svg>
