<svg xmlns="http://www.w3.org/2000/svg" width="305.16" height="103.369" viewBox="0 0 305.16 103.369">
  <g id="nigth" transform="translate(2.498 20)">
    <path id="Icon_open-sun" data-name="Icon open-sun" d="M24.81,0a3.071,3.071,0,1,0,2.2.9A3.071,3.071,0,0,0,24.81,0ZM9.3,6.2a3.071,3.071,0,1,0,2.2.9,3.1,3.1,0,0,0-2.2-.9Zm31.012,0a3.071,3.071,0,1,0,2.2.9,3.1,3.1,0,0,0-2.2-.9Zm-15.5,6.2A12.4,12.4,0,1,0,37.215,24.8,12.4,12.4,0,0,0,24.81,12.4ZM3.1,21.709a3.1,3.1,0,1,0,3.1,3.1,3.1,3.1,0,0,0-3.1-3.1Zm43.417,0a3.071,3.071,0,1,0,2.2.9,3.1,3.1,0,0,0-2.2-.9ZM9.3,37.215a3.071,3.071,0,1,0,2.2.9,3.1,3.1,0,0,0-2.2-.9Zm31.012,0a3.071,3.071,0,1,0,2.2.9,3.1,3.1,0,0,0-2.2-.9Zm-15.506,6.2a3.074,3.074,0,1,0,2.2.9,3.1,3.1,0,0,0-2.2-.9Z" transform="translate(124.502 -20)" fill="rgba(255,255,255,0)"/>
    <g id="arco" transform="translate(28.191)">
      <path id="Trazado_27" data-name="Trazado 27" d="M123.65,0C69.214,0,22.7,33.935,3.875,82.442c121.56-.716,121.454,0,237.709,0C223.3,35.35,178.087,0,123.65,0Z" fill="none"/>
      <path id="Trazado_28" data-name="Trazado 28" d="M123.65,0h2.442q.78.015,1.558.04l-.128,4c-1.281-.019-2.585-.04-3.872-.04Zm8,.256h.23l.108.007h.005c.456.031.91.063,1.365.1h0l.071.006h.046l.067,0h.42l.118.01h0q.777.065,1.551.14l-.385,3.981c-1.277-.124-2.574-.228-3.857-.31Zm7.961.771c1.232.16,2.461.338,3.68.534h.008l.107.017h.011l.062.01h.01l.033,0h.014l.033,0-.644,3.948c-1.267-.206-2.555-.395-3.828-.56l.514-3.967ZM147.5,2.314h.014l.032.006.029.006.036.007h.019l.049.01h.014l.049.01h0l.056.011h.007l.058.011h0l.121.024h0Q149,2.6,150,2.822h0l.118.026h0l.056.012h.009l.055.012h.006l.048.011h.014l.048.011h.018l.037.008.027.006.034.008h.022l.043.009.027.006.022.005.048.011h.017l.033.007h0l.068.015h.008l.635.145-.9,3.9c-1.251-.289-2.524-.561-3.784-.809Zm7.793,1.8.747.2h.01l.053.014.019.005.029.008.039.011.026.007.025.007.036.01.03.008.023.006.044.012.019.005.039.011h.012l.048.013h.018l.048.013h.012l.044.012h.011l.05.014h.013l.051.014h.011l.047.013h.008l.052.014h.012l.052.014h.008l.047.013h.011l.051.014h.012l.051.014h.009l.046.013h.012l.049.014h.016l.049.014h.008l.045.013h.015l.048.014h.015l.044.012h.016l.042.012h.016l.047.014h.016l.041.012.018.005.04.011.02.006.044.013.02.006.035.01.021.006.041.012.02.006.043.012.023.007.028.008.031.009.032.009.026.007.033.01.032.009.024.007.041.012.023.007.028.008.027.008.038.011.023.007.035.01.031.009.025.008L158.47,5l.033.01.026.008.025.007.041.012.024.007.028.008.036.011.028.008.022.007.043.013.021.006.037.011.023.007.036.011.019.006.046.014h.016l.046.014h.008l.049.015h.012l.05.015h0l-1.154,3.83c-1.229-.37-2.482-.725-3.722-1.055L155.29,4.1Zm7.659,2.306q.491.165.977.334h0l.1.036h.009l.056.019.016.006.042.015.026.009.024.008.038.013.024.008.032.011.017.006.045.016.018.006.047.016h.011l.045.016h.009l.052.018h.008l.055.019h0q1.061.375,2.112.768l-1.4,3.747c-1.2-.45-2.429-.886-3.645-1.3l1.277-3.79Zm7.493,2.8c.3.123.592.245.891.37h.005l.059.025h.009l.03.013.022.009.041.017.021.009.036.016.027.011.024.01.039.017.02.008.036.015.016.007.042.018.016.007.046.02.012.005.1.045h.006l.055.024h0q1.062.454,2.116.928L172.48,14.45c-1.172-.527-2.368-1.042-3.555-1.53l1.522-3.7Zm7.295,3.28q1.8.879,3.565,1.814l-1.871,3.535c-1.137-.6-2.3-1.192-3.451-1.756Zm7.07,3.741h.005l.044.025.012.007.045.026.009,0,.039.023.013.008.042.024.017.009.041.024.015.009.031.018.018.01.038.022.021.012.033.019.025.014.025.015.031.017.025.015.025.014.026.015.033.019.016.009.045.026.014.008.089.052h.007l.056.032h.005l.158.092h0c.817.477,1.632.964,2.438,1.459l-2.093,3.409c-1.1-.673-2.217-1.337-3.332-1.973Zm6.817,4.184q.73.48,1.453.971h0l.048.032h.006l.047.032h0l.042.029.011.007.042.028.014.01.038.026.017.011.027.019.019.013.034.023.022.015.023.016.035.024.017.012.042.029.012.009.086.059h.006l.056.038h0l.09.062h0l.059.04h0l.664.461h0l.058.04h0l.03.02h.005l.049.035.014.01.04.028.017.012.024.017.032.022.021.015.025.017.025.017.029.021.011.007-2.3,3.271c-1.052-.741-2.13-1.474-3.2-2.18Zm6.541,4.6q.474.356.945.717h0l.047.036h0l.045.034h0l.043.033.011.008.04.031.011.009.035.026.015.011.033.026.015.012.037.029.015.012.034.026.018.014.027.021.018.014.035.027.018.014.031.024.021.016.025.019.019.015.032.025.02.016.033.026.018.014.026.02.023.018.028.022.017.013.037.028.015.012.034.027.014.011.032.025.014.01.038.03.013.01.04.031.009.007.038.03.007,0,.043.034.008.006.045.035h0l.1.076h0q.467.367.929.738l-2.5,3.121c-1-.805-2.034-1.6-3.061-2.377Zm6.241,5q1.224,1.045,2.418,2.117h0l.051.045.006.006.037.034.017.015.02.019.024.022.022.02.027.024.013.012.037.034.01.009.041.038h0l.278.251-2.69,2.961c-.953-.866-1.932-1.728-2.909-2.562Zm5.92,5.379.151.146.007.007.04.039.013.013.023.022.028.028.017.017.03.028.015.015.026.026.013.012.035.034.012.011.036.035.008.008.037.036h0l.039.039.007.007.041.039h0l.131.129h0q.869.853,1.723,1.722h0l.041.042v.005l.041.041h0l.041.042h0l.039.04.008.008.037.038.008.009.034.035.005.005.037.037.01.011.034.035.013.014.027.027.009.01-2.866,2.79c-.9-.922-1.822-1.843-2.747-2.737Zm5.58,5.731q.654.714,1.3,1.437h0l.038.043.005.005.038.043h0l.037.041.006.008.035.039.009.01.034.038.009.01.029.033.009.01.032.036.013.014.03.035.014.015.023.026.018.021.024.027.015.017.028.032.016.018.022.024.021.025.02.022.016.018.028.031.017.019.022.026.021.024.018.021.024.027.02.023.017.02.027.031.017.019.018.02.025.029.018.021.018.02.026.03.018.021.017.019.027.031.016.018.025.029.019.022.018.021.019.021.025.029.017.019.024.029.019.022.017.02.028.032.016.018.02.023.021.025.021.024.016.018.028.033.015.017.024.028.017.02.023.027.009.01-3.031,2.611c-.84-.975-1.706-1.951-2.575-2.9Zm5.221,6.06c.112.138.219.27.33.409v.007l.037.046.009.01.02.026.024.029.017.022.017.021.022.027.02.025.014.017.028.035.012.016.03.037.009.011.028.035.007.009.033.041.007.009.034.043h0l.075.094h0q.855,1.076,1.688,2.17l-3.184,2.422c-.779-1.024-1.585-2.051-2.4-3.051Zm4.844,6.365q1.163,1.627,2.276,3.29l-3.324,2.225c-.716-1.069-1.458-2.143-2.206-3.19Zm4.451,6.647q.49.784.969,1.572h0l.054.09.008.014.026.042.011.019.019.031.017.028.013.022.023.037.01.016.019.032.008.014.026.042.008.014.026.043.006.011.027.044h0l.029.048v.008c.009.016.019.032.029.048a.015.015,0,0,0,0,.006l.061.1h0l.03.049v.006l.03.05h0l.031.052h0l.03.05V62.7l.03.049h0l.06.1v.008l.028.047.006.01.027.045v.008l.024.041.008.013.024.041.011.018c.006.011.013.022.02.033l.014.025c.005.008.01.015.014.023s.015.025.022.038l.011.018.017.028a.024.024,0,0,0,0,.007c.01.019.022.038.033.056l.174.3-3.452,2.02c-.65-1.111-1.326-2.227-2.01-3.318Zm4.04,6.9q.484.89.955,1.785V68.9l.027.051.008.016c0,.008.01.018.014.026s.012.024.019.036l.011.021c.006.012.012.024.019.036a.041.041,0,0,1,.007.015c0,.006.015.028.022.042l.005.009.026.049v.006q.375.719.742,1.442l-3.569,1.807c-.581-1.148-1.188-2.3-1.8-3.433Zm3.613,7.136q.471,1,.924,2.014h0l.028.063h0l.015.033h0l.027.059a.135.135,0,0,0,.008.017l.018.042a.2.2,0,0,1,.01.021c0,.008.008.017.011.026l.017.037c0,.008.007.015.01.024l.012.027.014.029.013.031.009.019c.006.014.012.028.019.042l.007.017c.007.015.014.03.02.045v.01l.02.044v.01c.008.017.015.033.022.05a.031.031,0,0,0,0,.008l.023.053h0c.016.038.033.076.05.113h0q.176.4.35.8l-3.672,1.586c-.511-1.181-1.046-2.37-1.593-3.536Zm.4,4.188h1.471q.846,1.984,1.629,4h-3.1Zm-8,0h4v4h-4Zm-7.995,0h4v4h-4Zm-8.005-.007h4v4h-4Zm-8-.01,4,0-.005,4h-4Zm-8-.013,4.006.007-.007,4-3.929-.007h-.077Zm-7.992-.016,3.993.008-.008,4h-1.6l-2.4,0Zm-8-.019,4,.01-.01,4h-3.995Zm-8-.022,3.994.011-.011,4-1.846,0-2.149-.006Zm-8-.025,4,.013-.012,4h-1.285l-2.713-.009Zm-8-.028,4,.014-.014,4h-1.23l-2.772-.01Zm-8-.029,4,.015-.015,4-4-.015Zm-8-.03,4,.015-.015,4-4-.015Zm-8-.029,4,.014-.015,4h-.178l-3.821-.014Zm-8-.027,4,.013-.013,4-4-.013Zm-8-.023,4,.011-.011,4-2.97-.008h-1.029Zm-8-.017,4,.008-.009,4h-4Zm-8-.011h4l-.006,4h-4Zm-8,0h4v4h-4Zm-4,0v4h-4v-4Zm-8,.006v4l-4,0-.006-4Zm-8,.012.008,4-4,.008-.009-4Zm-8,.018.01,4-4,.011-.012-4Zm-8,.023.013,4-2.389.008H54.5l-.014-4Zm-8,.028.015,4-1.7.007-2.3.009-.016-4Zm-8,.032.017,4-4.005.017-.018-4Zm-8,.036.019,4h-.929l-3.077.015-.019-4Zm-8,.039.02,4-1.941.01L22.5,82.34l-.021-4Zm-8,.042.021,4-4,.022-.022-4Zm-12.56-.9,2.182.952,2.364-.014.023,4-2.309.013H7.544L6.5,82.427V82l-2.111-.845Q5.127,79.3,5.926,77.465Zm3.423-7.23,3.561,1.822c-.586,1.145-1.162,2.316-1.713,3.479L7.582,73.824c.1-.214.2-.428.306-.641v-.006l.026-.055.007-.015.013-.027.018-.037.011-.022.016-.033.01-.02.018-.037.008-.016.022-.046.005-.011.051-.1h0q.586-1.209,1.2-2.4h0l.027-.053V70.3l.026-.051Zm3.86-7.006,3.443,2.037c-.655,1.107-1.3,2.24-1.923,3.367l-3.5-1.93q.962-1.755,1.979-3.474Zm4.282-6.756L20.8,58.718c-.722,1.065-1.437,2.155-2.125,3.242L15.3,59.819q.426-.672.86-1.339l0-.008.033-.051.006-.009.017-.026.012-.019.023-.035.015-.024.013-.02.025-.038.012-.018.026-.04.008-.012.023-.036.007-.011.028-.043.007-.011.03-.045v-.005l.03-.046h0l.032-.048V57.93q.307-.467.619-.931v-.005l.032-.048h0l.031-.046h0l.03-.045.008-.012.028-.042.01-.014.02-.029.017-.025.018-.027.016-.024.011-.017.029-.043.007-.01Zm4.689-6.48,3.167,2.444c-.786,1.018-1.567,2.063-2.321,3.1L19.785,53.2q1.174-1.624,2.4-3.206Zm5.079-6.179,3.01,2.634c-.847.968-1.691,1.963-2.507,2.957l-3.09-2.54q1.271-1.546,2.587-3.051Zm5.45-5.855,2.842,2.814c-.9.914-1.808,1.855-2.685,2.8l-2.928-2.725q.552-.593,1.112-1.179l0-.006.038-.04.008-.008.034-.036.01-.011.03-.031.013-.013.032-.033.016-.016.024-.025.024-.025L31.3,39.4l.034-.036.012-.012.022-.023.01-.011.038-.04.009-.01.046-.048h0l.077-.079h0q.574-.6,1.157-1.183Zm5.8-5.507,2.663,2.985c-.959.856-1.919,1.739-2.852,2.625l-2.754-2.9q1.451-1.378,2.944-2.71Zm6.131-5.138,2.473,3.144c-1.013.8-2.023,1.617-3.013,2.442l-2.569-3.066q1.077-.9,2.174-1.782h0l.141-.113.009-.007L43.9,27.9l.009-.007.038-.03.008-.006L44,27.824l.012-.01.038-.03.014-.012.033-.026.015-.012.031-.024.017-.014.034-.027.018-.014.025-.02.029-.023.02-.016.021-.017.031-.025.023-.019.016-.013.038-.03.014-.012.043-.034.01-.008.026-.021.008-.007.047-.037.01-.008.05-.039h0Zm6.438-4.747,2.273,3.292c-1.058.73-2.119,1.488-3.154,2.251l-2.375-3.22q.376-.277.755-.552h0l.047-.034h.006l.042-.03h.007l.042-.031.013-.009.04-.029.014-.01.03-.022.018-.013.033-.024.02-.014.034-.025.021-.015.021-.016L49,24.029l.015-.011.084-.06.007,0,.052-.037h.006l.088-.063h0l.058-.041h0c.584-.418,1.168-.828,1.759-1.237ZM57.8,18.229l2.063,3.427c-1.1.663-2.207,1.353-3.288,2.05L54.4,20.346q.577-.372,1.158-.739h0l.1-.062.009-.006.044-.028.012-.008.042-.026.015-.009.031-.019.018-.011.036-.023.023-.015.018-.011.043-.027.012-.007c.437-.273.881-.547,1.321-.815l.009,0,.045-.027.018-.011.023-.014.036-.022.018-.011.034-.02.012-.007.046-.028.008,0,.049-.03h0Zm6.979-3.908,1.844,3.55c-1.14.592-2.287,1.212-3.409,1.84l-1.955-3.49q.462-.259.927-.514h0l.049-.027.012-.006.045-.025.013-.007.032-.018.021-.011.035-.019.026-.014.015-.008.05-.027h.007q.684-.373,1.372-.738h.009l.048-.025.016-.008.024-.012.03-.016.02-.01.04-.021.011-.006.05-.026h0Zm7.211-3.463,1.617,3.658c-1.175.52-2.359,1.066-3.518,1.622l-1.732-3.606q.886-.425,1.78-.838h0l.066-.03h0l.032-.015h.01l.051-.023.019-.009.038-.017.024-.011.025-.012.033-.015.026-.012.029-.013.019-.009.043-.019.017-.008.044-.02.015-.007.038-.017.013-.006.047-.021.012-.005.049-.022h.006l.049-.022h.006l.051-.023h.009l.051-.023h.006l.05-.023h0l.052-.024h.007l.053-.024h0l.054-.024h0l.053-.024h.007l.053-.024h0l.052-.024h0l.052-.023h.008l.051-.023h.008l.045-.02h.009l.048-.021.013-.006.047-.021.012-.005.04-.018.013-.006.043-.019.02-.009.041-.018.022-.01.024-.011.04-.018.02-.009.029-.013h.011Zm7.414-3,1.384,3.753c-1.206.445-2.422.915-3.613,1.4L75.671,9.3h.008l.039-.016.026-.011.019-.008.048-.019.014-.006q1.181-.477,2.376-.931h0l.1-.038.016-.006.045-.017.023-.009.024-.009.04-.015.021-.008.04-.015.016-.006.043-.016h.01l.054-.02h0ZM86.99,5.327,88.134,9.16c-1.232.368-2.474.76-3.694,1.167l-1.264-3.8.593-.2h0l.118-.039h0l.058-.019h0l.116-.038h0l.056-.018h.007l.11-.036h.009l.054-.017H84.3l.054-.017h0l.055-.018h.008l.054-.017h0l.053-.017h0l.054-.017H84.6l.054-.017h0l.052-.017h.007l.053-.017h.009l.053-.017h0l.052-.016h.007l.053-.017h.01L85,5.96h0l.051-.016h.01l.052-.017h.008l.111-.035h.006l.056-.017h0l.115-.036h0Q86.211,5.559,86.99,5.327Zm7.733-2.045.9,3.9c-1.252.289-2.517.6-3.759.931l-1.023-3.87.361-.095h0l.179-.047h0l.179-.046h0q1.577-.407,3.163-.774Zm7.847-1.555.654,3.946c-1.27.21-2.552.443-3.813.693l-.777-3.924q1.315-.261,2.64-.494h0l.06-.011h0l.117-.02h.009l.055-.01h.007l.049-.008h.012l.05-.009h.017l.043-.007h.022l.036-.006h.022l.044-.007h.049l.051-.009h.015l.034-.006h.006l.069-.012h0l.523-.088ZM110.5.667l.406,3.979c-1.28.131-2.575.283-3.849.453l-.53-3.965.68-.089h0l.059-.008h.007l.112-.014h.014l.05-.006h.075L107.565,1h.052l.045-.006h.064l.06-.008h.013l.109-.013h0q.812-.1,1.623-.188h0l.113-.012h.007l.068-.007h.006l.108-.012h.013l.07-.007h.049l.056-.006h.067l.05,0h.335ZM118.476.1l.158,4c-1.286.051-2.587.123-3.868.213l-.283-3.99h.252l.11-.008h1.908l.112-.006h0l.194-.01h0c.466-.024.936-.045,1.4-.063ZM123.65,0V4c-.378,0-.762,0-1.14.005l-.036-4h1.174Z" fill="rgba(143,158,183,0.5)"/>
    </g>
    <path id="horizonte" d="M1796.31,636H1496.15" transform="translate(-1496.148 -555.131)" fill="none" stroke="#301549" stroke-linecap="round" stroke-width="5"/>
    <path id="Icon_open-sun-2" data-name="Icon open-sun" d="M24.809,0a3.071,3.071,0,1,0,2.2.9,3.071,3.071,0,0,0-2.2-.9ZM9.3,6.2a3.071,3.071,0,1,0,2.2.9,3.071,3.071,0,0,0-2.2-.9Zm31.011,0a3.071,3.071,0,1,0,2.2.9A3.071,3.071,0,0,0,40.311,6.2Zm-15.5,6.2a12.4,12.4,0,1,0,12.4,12.4,12.4,12.4,0,0,0-12.4-12.4ZM3.1,21.708a3.1,3.1,0,1,0,3.1,3.1,3.1,3.1,0,0,0-3.1-3.1Zm43.415,0a3.071,3.071,0,1,0,2.2.9,3.071,3.071,0,0,0-2.2-.9Z" transform="translate(234.276 45.5)" fill="#301549"/>
  </g>
</svg>
