<svg xmlns="http://www.w3.org/2000/svg" width="375" height="226" viewBox="0 0 375 226">
  <path id="Intersección_2" data-name="Intersección 2" d="M353.985,226.761v-55.17H388.04v55.17Zm-90.726,0V.761h34.576v226Zm-47.776,0V.761h34.577v226Zm-48.731,0V181.922h34.576v44.839Zm-93.28,0V214.907H46.443v11.854H13.04V103.916q2.286-14.339,8.508-21.892,13.523-16.65,39.34-16.65,9.22,0,23.2,5.5V107l-3.534-1.885Q69.34,99.3,62.117,99.3q-9.22,0-12.447,6.754-3.228,6.6-3.227,25.446v50.421h61.606v44.839Z" transform="translate(-13.04 -0.761)" fill="#3b2152"/>
</svg>
