<svg xmlns="http://www.w3.org/2000/svg" width="375" height="213.02" viewBox="0 0 375 213.02">
  <path id="Intersección_1" data-name="Intersección 1" d="M223.123,369.337q-20.228-22.1-20.228-58.622,0-36.208,19.615-58.622,19.769-22.1,52.411-22.1,32.948,0,52.1,21.474,19,21.318,19,59.092l-.153,8.308H238.907q1.38,18.808,11.954,29.938,10.573,10.973,27.124,10.973,12.874,0,21.3-6.271,8.275-6.268,18.85-23.2l29.117,16.615A118.4,118.4,0,0,1,333,367.064a76.169,76.169,0,0,1-16.091,13.792,63.731,63.731,0,0,1-18.543,7.916,88.338,88.338,0,0,1-21.608,2.508Q243.352,391.281,223.123,369.337ZM263.886,263.77a33.537,33.537,0,0,0-10.038,5.642,35.541,35.541,0,0,0-7.739,8.855,41.676,41.676,0,0,0-4.9,11.757h69.268q-7.2-28.214-34.788-28.214A34.989,34.989,0,0,0,263.886,263.77Zm89.173,126.676V178.261H387.54V390.446ZM92.787,315.255a54.035,54.035,0,0,1-15.171-21.474q-4.292-10.66-4.291-31.663V206.63H46.371V326.383H12.54V178.261h95.266v83.073q0,37.932,29.27,37.932t29.271-37.932V178.261h34.48v83.857q0,18.34-4.444,31.663a53.2,53.2,0,0,1-14.864,21.474q-17.47,15.517-44.442,15.517Q110.258,330.772,92.787,315.255Zm169.8-96.078V178.261h34.48v40.916Zm-47.643,0V178.261h34.481v40.916Z" transform="translate(-12.54 -178.261)" fill="#3b2152"/>
</svg>
