<svg xmlns="http://www.w3.org/2000/svg" width="235" height="241.63" viewBox="0 0 235 241.63">
  <path id="brandPrimary" d="M135.434,228.344q-12.25-13.38-12.25-35.488,0-21.92,11.879-35.488,11.97-13.38,31.738-13.379,19.953,0,31.553,13,11.507,12.9,11.507,35.772l-.093,5.029H144.993q.834,11.387,7.239,18.123,6.4,6.642,16.426,6.642,7.8,0,12.9-3.8,5.011-3.795,11.415-14.044L210.6,214.775a71.642,71.642,0,0,1-8.631,12.193,46.142,46.142,0,0,1-9.744,8.35A38.611,38.611,0,0,1,181,240.11a53.506,53.506,0,0,1-13.085,1.518Q147.684,241.628,135.434,228.344Zm24.685-63.907a20.319,20.319,0,0,0-6.079,3.416,21.5,21.5,0,0,0-4.686,5.361,25.218,25.218,0,0,0-2.97,7.116h41.947q-4.362-17.08-21.066-17.08a21.216,21.216,0,0,0-7.146,1.187Zm54,76.685V103.68H235V241.123ZM56.507,195.6a32.716,32.716,0,0,1-9.188-13q-2.6-6.453-2.6-19.167V129.847H28.4v72.494H7.424V129.847H0V109.921H7.424V74.243q0-17.46,5.939-24.671Q21.531,39.514,37.12,39.514q5.569,0,14.013,3.322V64.66L49,63.52q-6.774-3.51-11.137-3.51-5.567,0-7.517,4.08Q28.4,68.075,28.4,79.462v30.459H65.6v53.042q0,22.962,17.725,22.963t17.726-22.963V109.921h20.881v53.517A60.772,60.772,0,0,1,119.24,182.6a32.2,32.2,0,0,1-9,13Q99.66,205,83.326,205,67.085,205,56.507,195.6Zm102.824-58.162V0h20.881V137.443Zm-28.851,0V0h20.88V137.443Z" fill="#301549"/>
</svg>
