<svg xmlns="http://www.w3.org/2000/svg" width="106.333" height="116" viewBox="0 0 106.333 116">
  <path id="gasStationIcon" d="M117.629,27.26l.1-.1L93.72,3.222l-6.831,6.831,13.6,13.6a16.087,16.087,0,0,0,5.735,31.127,15.919,15.919,0,0,0,6.444-1.353V99.889a6.444,6.444,0,1,1-12.888,0v-29A12.885,12.885,0,0,0,86.889,58H80.445V12.889A12.886,12.886,0,0,0,67.556,0H28.889A12.885,12.885,0,0,0,16,12.889V116H80.445V67.667h9.667V99.889a16.111,16.111,0,1,0,32.222,0V38.667A16.18,16.18,0,0,0,117.629,27.26ZM67.556,45.111H28.889V12.889H67.556Zm38.667,0a6.444,6.444,0,1,1,6.444-6.444A6.463,6.463,0,0,1,106.223,45.111Z" transform="translate(-16)" fill="#8f9eb7"/>
</svg>
