<svg xmlns="http://www.w3.org/2000/svg" width="311.137" height="249.315" viewBox="0 0 311.137 249.315">
  <path id="noNotificationsDashed" d="M306.138,221.264l-43.77-33.834a14.5,14.5,0,0,0,.386-1.961,15.083,15.083,0,0,0-4.159-10.486c-9.332-10.027-26.792-25.111-26.792-74.523,0-37.529-26.314-67.572-61.8-74.943V15.456a15.446,15.446,0,1,0-30.893,0V25.522A77.585,77.585,0,0,0,91.978,55.744L21.962,1.628A7.732,7.732,0,0,0,11.114,2.985L1.627,15.19A7.727,7.727,0,0,0,2.985,26.034L287.16,245.671a7.728,7.728,0,0,0,10.848-1.357l9.486-12.206A7.727,7.727,0,0,0,306.138,221.264Zm-230.2-99.769c-4.159,32.825-17.586,45.079-25.416,53.493a15.091,15.091,0,0,0-4.159,10.486,15.47,15.47,0,0,0,15.5,15.456H178.721Zm78.619,125.8a30.907,30.907,0,0,0,30.9-30.912h-61.8A30.907,30.907,0,0,0,154.561,247.3Z" transform="translate(1.008 1.007)" fill="none" stroke="#8f9eb7" stroke-width="2" stroke-dasharray="4"/>
</svg>
